<svg ersion="1.0" xmlns="http://www.w3.org/2000/svg" width="112" height="50" viewBox="0 0 500 200"
          fill="none" preserveAspectRatio="xMidYMid meet">
<g transform="translate(0.000000,150.000000) scale(0.100000,-0.100000)" fill="#000000" stroke="none">
    <path d="M709 1044 c-30 -36 -65 -44 -191 -42 -105 1 -130 -2 -170 -20 -75
          -33 -100 -111 -58 -179 34 -56 136 -69 191 -24 27 22 20 58 -9 46 -39 -18 -83
          -17 -102 0 -23 21 -26 63 -7 89 18 25 92 38 172 31 50 -5 82 -3 113 8 l43 15
          -6 -26 c-3 -15 -23 -85 -43 -157 l-37 -130 -63 -7 c-127 -14 -222 -99 -222
          -199 0 -66 16 -95 62 -113 119 -48 220 25 269 194 7 25 15 48 19 52 5 6 159
          -17 166 -25 1 -1 -12 -46 -28 -100 -16 -55 -27 -105 -24 -113 6 -16 62 -19 71
          -4 4 6 20 56 36 112 29 104 38 118 75 118 12 0 42 11 68 25 26 14 49 25 51 25
          2 0 -3 -19 -11 -42 -17 -49 -20 -141 -5 -179 33 -87 171 -101 264 -28 25 20
          44 28 57 24 26 -8 92 11 124 36 l26 20 0 -36 c0 -50 14 -71 54 -85 61 -20 137
          14 187 83 l29 40 0 -35 c0 -45 33 -88 66 -88 69 0 134 70 224 241 36 68 76
          136 89 152 l24 29 24 -79 c13 -43 29 -102 35 -131 11 -49 11 -55 -6 -64 -14
          -8 -16 -17 -12 -42 5 -28 3 -34 -19 -44 -14 -7 -32 -12 -40 -12 -25 0 -55 38
          -55 68 0 36 -8 44 -31 31 -14 -7 -19 -21 -19 -49 0 -50 38 -97 86 -106 41 -7
          112 16 139 46 10 11 27 20 37 20 30 0 81 25 110 55 l28 27 10 -26 c5 -15 10
          -31 10 -36 0 -4 16 -22 35 -38 84 -74 223 -65 321 21 32 28 44 34 44 22 0 -9
          4 -14 8 -11 5 3 19 -8 30 -24 38 -50 114 -53 170 -5 26 22 31 23 36 8 5 -11
          -15 -36 -70 -87 -96 -89 -129 -142 -121 -197 7 -51 29 -76 80 -90 32 -9 48 -7
          84 6 79 30 113 117 113 288 0 77 1 80 45 141 45 63 125 214 125 235 0 6 17 11
          40 11 l41 0 -8 -52 c-13 -86 -8 -189 10 -225 39 -75 104 -93 160 -43 l34 29
          23 -24 c26 -28 76 -41 117 -31 14 4 42 23 62 43 24 24 37 31 40 22 2 -8 17
          -26 32 -41 38 -38 81 -37 121 2 36 36 38 37 38 5 0 -27 28 -40 71 -33 22 3 25
          9 31 88 8 90 38 202 62 235 14 20 14 19 20 -5 2 -14 7 -66 10 -115 6 -104 20
          -151 47 -166 41 -22 53 -5 70 98 9 54 27 125 40 158 l24 60 6 -125 c4 -80 12
          -138 22 -162 16 -39 59 -68 100 -68 42 0 87 67 87 131 0 42 -17 36 -30 -11
          -24 -90 -71 -86 -91 7 -7 35 -10 102 -7 170 3 61 2 116 -1 122 -10 16 -78 41
          -95 35 -17 -7 -48 -83 -72 -180 -22 -85 -34 -67 -34 52 0 98 -8 116 -60 129
          -34 8 -52 -13 -80 -95 -13 -36 -27 -69 -32 -74 -4 -6 -8 27 -8 72 0 87 -1 89
          -50 94 l-25 3 -5 -155 c-4 -129 -8 -162 -25 -194 -28 -56 -51 -67 -76 -37 -17
          21 -19 40 -19 192 0 156 -1 169 -19 179 -28 15 -61 12 -67 -5 -5 -12 -11 -11
          -37 7 -38 27 -88 28 -124 2 -16 -11 -41 -47 -58 -79 -27 -54 -30 -69 -31 -160
          0 -55 -4 -110 -8 -122 -11 -33 -44 -39 -69 -14 -29 28 -34 132 -13 235 24 115
          10 129 -101 107 -43 -8 -43 -8 -43 21 0 40 -39 58 -74 34 -35 -22 -43 -61 -22
          -101 16 -30 16 -34 -3 -86 -12 -30 -36 -79 -53 -109 l-33 -55 -3 155 c-2 131
          -5 157 -19 168 -23 16 -62 15 -69 -3 -5 -12 -11 -11 -34 6 -36 28 -92 29 -127
          3 -51 -38 -75 -97 -82 -200 -6 -85 -8 -95 -36 -124 -81 -84 -210 -105 -267
          -41 -19 21 -28 42 -28 64 l0 33 78 -1 c126 0 190 47 200 146 4 43 1 51 -26 79
          -27 26 -37 30 -88 30 -107 0 -192 -66 -235 -179 -29 -79 -62 -125 -102 -144
          -50 -24 -57 -22 -50 17 4 23 -5 69 -28 143 -18 59 -33 131 -34 158 0 47 -2 50
          -27 53 -53 6 -122 -75 -208 -247 -59 -117 -110 -181 -146 -181 -45 0 -41 68
          12 257 14 51 24 100 20 108 -3 9 -18 15 -35 15 -27 0 -31 -4 -42 -42 -34 -128
          -73 -232 -102 -270 -41 -54 -99 -88 -124 -72 -29 18 -26 53 13 208 20 80 34
          152 30 161 -7 18 -50 20 -63 3 -5 -7 -20 -51 -32 -98 -39 -145 -83 -210 -152
          -225 -17 -4 -32 -5 -34 -3 -3 2 8 33 22 68 33 82 37 170 8 217 -45 76 -163 78
          -260 5 -28 -21 -56 -37 -64 -34 -7 2 -23 -6 -36 -18 -33 -31 -129 -64 -133
          -46 -5 24 59 261 93 342 15 36 15 39 -1 51 -10 7 -28 13 -40 13 -18 0 -26 -12
          -48 -72 -14 -40 -42 -133 -61 -207 -18 -73 -35 -134 -37 -136 -5 -4 -149 23
          -155 29 -5 5 76 314 96 369 5 12 6 28 4 35 -7 17 -68 15 -84 -4z m2409 -322
          c55 -36 33 -268 -30 -315 -25 -19 -28 -19 -52 -4 -54 36 -59 223 -6 297 22 30
          59 40 88 22z m769 -19 c14 -21 18 -47 17 -118 0 -101 -17 -153 -57 -179 -56
          -37 -87 15 -87 143 0 126 25 181 81 181 20 0 34 -8 46 -27z m-2547 7 c28 -15
          41 -64 30 -118 -13 -69 -26 -99 -50 -112 -12 -6 -20 -21 -20 -35 0 -18 -10
          -31 -32 -45 -40 -24 -66 -25 -95 -5 -70 49 -11 254 87 306 39 22 54 23 80 9z
          m1428 -2 c17 -17 15 -69 -4 -96 -23 -33 -67 -52 -124 -52 -60 0 -62 7 -20 73
          45 71 116 107 148 75z m-2178 -121 c0 -15 -44 -126 -60 -152 -26 -42 -71 -62
          -105 -47 -21 10 -25 19 -25 55 0 81 69 147 153 147 20 0 37 -2 37 -3z m2568
          -379 c-7 -103 -27 -155 -64 -164 -60 -15 -89 41 -55 106 24 47 101 140 115
          140 5 0 6 -37 4 -82z" fill="var(--text-dark)" />
    </g>
</svg>